<?xml version="1.0" encoding="UTF-8" standalone="no"?>
<!-- Created with Inkscape (http://www.inkscape.org/) -->

<svg
   xmlns:dc="http://purl.org/dc/elements/1.1/"
   xmlns:cc="http://creativecommons.org/ns#"
   xmlns:rdf="http://www.w3.org/1999/02/22-rdf-syntax-ns#"
   xmlns:svg="http://www.w3.org/2000/svg"
   xmlns="http://www.w3.org/2000/svg"
   xmlns:xlink="http://www.w3.org/1999/xlink"
   xmlns:sodipodi="http://sodipodi.sourceforge.net/DTD/sodipodi-0.dtd"
   xmlns:inkscape="http://www.inkscape.org/namespaces/inkscape"
   version="1.1"
   width="352.31024"
   height="205.49287"
   id="svg6642"
   inkscape:version="0.48.4 r9939"
   sodipodi:docname="everest_0.1_simple.svg"
   inkscape:export-filename="/home/mo/project/everest/everest_0.1_simple.png"
   inkscape:export-xdpi="51.091331"
   inkscape:export-ydpi="51.091331">
  <title
     id="title3034">Everest Logo</title>
  <sodipodi:namedview
     pagecolor="#ffffff"
     bordercolor="#666666"
     borderopacity="1"
     objecttolerance="10"
     gridtolerance="10"
     guidetolerance="10"
     inkscape:pageopacity="0"
     inkscape:pageshadow="2"
     inkscape:window-width="1596"
     inkscape:window-height="1123"
     id="namedview57"
     showgrid="false"
     inkscape:zoom="1.1126557"
     inkscape:cx="-112.7932"
     inkscape:cy="102.74644"
     inkscape:window-x="1600"
     inkscape:window-y="54"
     inkscape:window-maximized="0"
     inkscape:current-layer="svg6642" />
  <defs
     id="defs6644">
    <linearGradient
       x1="3477.647"
       y1="-3356.4714"
       x2="3427.1941"
       y2="-3251.9207"
       id="linearGradient6539"
       xlink:href="#linearGradient5049-8-2-5-6-5"
       gradientUnits="userSpaceOnUse"
       gradientTransform="translate(158.25504,3476.2817)" />
    <linearGradient
       id="linearGradient5049-8-2-5-6-5">
      <stop
         id="stop5051-7-8-3-9-3"
         style="stop-color:#ffffff;stop-opacity:0.58823532"
         offset="0" />
      <stop
         id="stop5053-3-6-2-9-8"
         style="stop-color:#ffffff;stop-opacity:0.03921569"
         offset="1" />
    </linearGradient>
    <linearGradient
       x1="3477.647"
       y1="-3356.4714"
       x2="3427.1941"
       y2="-3251.9207"
       id="linearGradient6541"
       xlink:href="#linearGradient5049-8-2-5-6-5"
       gradientUnits="userSpaceOnUse"
       gradientTransform="translate(158.25504,3476.2817)" />
    <linearGradient
       x1="3477.647"
       y1="-3356.4714"
       x2="3427.1941"
       y2="-3251.9207"
       id="linearGradient6543"
       xlink:href="#linearGradient5049-8-2-5-6-5"
       gradientUnits="userSpaceOnUse"
       gradientTransform="translate(158.25504,3476.2817)" />
    <linearGradient
       x1="3477.647"
       y1="-3356.4714"
       x2="3427.1941"
       y2="-3251.9207"
       id="linearGradient6545"
       xlink:href="#linearGradient5049-8-2-5-6-5"
       gradientUnits="userSpaceOnUse"
       gradientTransform="translate(158.25504,3476.2817)" />
    <linearGradient
       x1="3477.647"
       y1="-3356.4714"
       x2="3427.1941"
       y2="-3251.9207"
       id="linearGradient6547"
       xlink:href="#linearGradient5049-8-2-5-6-5"
       gradientUnits="userSpaceOnUse"
       gradientTransform="translate(158.25504,3476.2817)" />
    <linearGradient
       x1="3477.647"
       y1="-3356.4714"
       x2="3427.1941"
       y2="-3251.9207"
       id="linearGradient6549"
       xlink:href="#linearGradient5049-8-2-5-6-5"
       gradientUnits="userSpaceOnUse"
       gradientTransform="translate(158.25504,3476.2817)" />
  </defs>
  <metadata
     id="metadata6647">
    <rdf:RDF>
      <cc:Work
         rdf:about="">
        <dc:format>image/svg+xml</dc:format>
        <dc:type
           rdf:resource="http://purl.org/dc/dcmitype/StillImage" />
        <dc:title>Everest Logo</dc:title>
        <cc:license
           rdf:resource="http://creativecommons.org/licenses/by-sa/3.0/" />
        <dc:date>2013-06-20</dc:date>
        <dc:creator>
          <cc:Agent>
            <dc:title>Morgan Martinet</dc:title>
          </cc:Agent>
        </dc:creator>
      </cc:Work>
      <cc:License
         rdf:about="http://creativecommons.org/licenses/by-sa/3.0/">
        <cc:permits
           rdf:resource="http://creativecommons.org/ns#Reproduction" />
        <cc:permits
           rdf:resource="http://creativecommons.org/ns#Distribution" />
        <cc:requires
           rdf:resource="http://creativecommons.org/ns#Notice" />
        <cc:requires
           rdf:resource="http://creativecommons.org/ns#Attribution" />
        <cc:permits
           rdf:resource="http://creativecommons.org/ns#DerivativeWorks" />
        <cc:requires
           rdf:resource="http://creativecommons.org/ns#ShareAlike" />
      </cc:License>
    </rdf:RDF>
  </metadata>
  <g
     transform="translate(-52.412202,-323.89926)"
     id="layer1">
    <g
       transform="translate(-3394.8457,683.73965)"
       id="g6268">
      <g
         id="g5261">
        <rect
           width="50.428967"
           height="50.428967"
           rx="5.0428967"
           ry="5.0428967"
           x="3548.7966"
           y="-94.651451"
           transform="matrix(0.99727971,-0.07371005,0.07371005,0.99727971,0,0)"
           id="use74984-9-6-1-6-6-04-6"
           style="color:#000000;fill:#2b5483;fill-opacity:1;fill-rule:evenodd;stroke:#ffffff;stroke-width:1.00857937;stroke-opacity:1;marker:none;visibility:visible;display:inline;overflow:visible;enable-background:accumulate" />
        <rect
           width="49.570778"
           height="49.570778"
           rx="4.957078"
           ry="4.957078"
           x="3568.324"
           y="-500.93478"
           transform="matrix(0.99920849,0.03977919,-0.03977919,0.99920849,0,0)"
           id="use75032-8-9-5-4-3-6-8"
           style="color:#000000;fill:#4b80b1;fill-opacity:1;fill-rule:evenodd;stroke:#ffffff;stroke-width:0.99141556;stroke-opacity:1;marker:none;visibility:visible;display:inline;overflow:visible;enable-background:accumulate" />
        <rect
           width="50.322247"
           height="50.322247"
           rx="5.0322247"
           ry="5.0322247"
           x="3576.2231"
           y="-154.63332"
           transform="matrix(0.99908762,-0.04270752,0.04270752,0.99908762,0,0)"
           id="use75034-6-1-4-9-5-1-2"
           style="color:#000000;fill:#1c4578;fill-opacity:1;fill-rule:evenodd;stroke:#ffffff;stroke-width:1.00644493;stroke-opacity:1;marker:none;visibility:visible;display:inline;overflow:visible;enable-background:accumulate" />
        <rect
           width="50.313393"
           height="50.313393"
           rx="5.0313392"
           ry="5.0313392"
           x="3628.605"
           y="-55.198872"
           transform="matrix(0.99759751,-0.06927631,0.06927631,0.99759751,0,0)"
           id="use75082-2-4-3-7-7-0-2"
           style="color:#000000;fill:#38689b;fill-opacity:1;fill-rule:evenodd;stroke:#ffffff;stroke-width:1.00626791;stroke-opacity:1;marker:none;visibility:visible;display:inline;overflow:visible;enable-background:accumulate" />
        <rect
           width="49.939651"
           height="49.939651"
           rx="4.9939651"
           ry="4.9939651"
           x="3444.2837"
           y="-270.24091"
           transform="matrix(0.99984014,0.01788018,-0.01788018,0.99984014,0,0)"
           id="use74894-6-9-1-2-7-7-3"
           style="color:#000000;fill:#2f486f;fill-opacity:1;fill-rule:evenodd;stroke:#ffffff;stroke-width:0.99879301;stroke-opacity:1;marker:none;visibility:visible;display:inline;overflow:visible;enable-background:accumulate" />
        <rect
           width="50.492912"
           height="50.492912"
           rx="5.0492911"
           ry="5.0492911"
           x="3526.7246"
           y="-157.74452"
           transform="matrix(0.99910015,-0.0424134,0.0424134,0.99910015,0,0)"
           id="use74986-1-0-6-5-8-82-6"
           style="color:#000000;fill:#214d82;fill-opacity:1;fill-rule:evenodd;stroke:#ffffff;stroke-width:1.00985825;stroke-opacity:1;marker:none;visibility:visible;display:inline;overflow:visible;enable-background:accumulate" />
        <rect
           width="49.87405"
           height="49.87405"
           rx="4.9874053"
           ry="4.9874053"
           x="3482.4465"
           y="-403.84256"
           transform="matrix(0.99845317,0.05559923,-0.05559923,0.99845317,0,0)"
           id="use74942-7-7-5-3-8-7-5"
           style="color:#000000;fill:#2b3e5d;fill-opacity:1;fill-rule:evenodd;stroke:#ffffff;stroke-width:0.99748099;stroke-opacity:1;marker:none;visibility:visible;display:inline;overflow:visible;enable-background:accumulate" />
        <rect
           width="50.467285"
           height="50.467285"
           rx="5.0467286"
           ry="5.0467286"
           x="3638.0654"
           y="-249.64775"
           transform="matrix(0.99999723,-0.00235498,0.00235498,0.99999723,0,0)"
           id="use75084-5-1-0-0-0-1-3"
           style="color:#000000;fill:#123667;fill-opacity:1;fill-rule:evenodd;stroke:#ffffff;stroke-width:1.00934565;stroke-opacity:1;marker:none;visibility:visible;display:inline;overflow:visible;enable-background:accumulate" />
        <rect
           width="50.216335"
           height="50.216335"
           rx="5.0216336"
           ry="5.0216336"
           x="3545.5413"
           y="24.699095"
           transform="matrix(0.99686016,-0.07918223,0.07918223,0.99686016,0,0)"
           id="use74988-9-6-8-7-4-64-2"
           style="color:#000000;fill:#163a68;fill-opacity:1;fill-rule:evenodd;stroke:#ffffff;stroke-width:1.0043267;stroke-opacity:1;marker:none;visibility:visible;display:inline;overflow:visible;enable-background:accumulate" />
        <rect
           width="50.089211"
           height="50.089211"
           rx="5.0089211"
           ry="5.0089211"
           x="3552.4312"
           y="11.285779"
           transform="matrix(0.99812242,-0.06125053,0.06125053,0.99812242,0,0)"
           id="use74990-5-5-6-4-6-1-5"
           style="color:#000000;fill:#344869;fill-opacity:1;fill-rule:evenodd;stroke:#ffffff;stroke-width:1.00178421;stroke-opacity:1;marker:none;visibility:visible;display:inline;overflow:visible;enable-background:accumulate" />
        <rect
           width="49.838688"
           height="49.838688"
           rx="4.9838691"
           ry="4.9838691"
           x="3495.1897"
           y="-97.763535"
           transform="matrix(0.99896644,-0.04545395,0.04545395,0.99896644,0,0)"
           id="use74940-7-7-6-6-0-0-5"
           style="color:#000000;fill:#224776;fill-opacity:1;fill-rule:evenodd;stroke:#ffffff;stroke-width:0.99677378;stroke-opacity:1;marker:none;visibility:visible;display:inline;overflow:visible;enable-background:accumulate" />
        <rect
           width="49.55772"
           height="49.55772"
           rx="4.9557719"
           ry="4.9557719"
           x="3570.8284"
           y="-451.3071"
           transform="matrix(0.99856558,0.05354243,-0.05354243,0.99856558,0,0)"
           id="use75036-6-1-1-0-4-4-0"
           style="color:#000000;fill:#0f2e5b;fill-opacity:1;fill-rule:evenodd;stroke:#ffffff;stroke-width:0.99115437;stroke-opacity:1;marker:none;visibility:visible;display:inline;overflow:visible;enable-background:accumulate" />
        <rect
           width="49.610394"
           height="49.610394"
           rx="4.9610395"
           ry="4.9610395"
           x="3646.8831"
           y="-233.5726"
           transform="matrix(0.99997545,0.00700752,-0.00700752,0.99997545,0,0)"
           id="use75086-7-0-2-9-7-0-3"
           style="color:#000000;fill:#103260;fill-opacity:1;fill-rule:evenodd;stroke:#ffffff;stroke-width:0.99220788;stroke-opacity:1;marker:none;visibility:visible;display:inline;overflow:visible;enable-background:accumulate" />
        <rect
           width="50.092472"
           height="50.092472"
           rx="5.0092473"
           ry="5.0092473"
           x="3693.3357"
           y="-277.89853"
           transform="matrix(0.99982425,0.01874729,-0.01874729,0.99982425,0,0)"
           id="use75134-5-0-4-5-7-3-3"
           style="color:#000000;fill:#1a335b;fill-opacity:1;fill-rule:evenodd;stroke:#ffffff;stroke-width:1.00184941;stroke-opacity:1;marker:none;visibility:visible;display:inline;overflow:visible;enable-background:accumulate" />
        <rect
           width="49.82925"
           height="49.82925"
           rx="4.9829254"
           ry="4.9829254"
           x="3602.7324"
           y="-51.177856"
           transform="matrix(0.99907108,-0.04309277,0.04309277,0.99907108,0,0)"
           id="use75038-2-1-6-8-9-6-1"
           style="color:#000000;fill:#1f3961;fill-opacity:1;fill-rule:evenodd;stroke:#ffffff;stroke-width:0.99658507;stroke-opacity:1;marker:none;visibility:visible;display:inline;overflow:visible;enable-background:accumulate" />
        <path
           d="m 3987.1429,-480.49496 a 32.142857,32.857143 0 1 1 -64.2858,0 32.142857,32.857143 0 1 1 64.2858,0 z"
           transform="matrix(0.85066123,0,0,0.8339504,407.29067,218.0202)"
           id="path4668-6"
           style="color:#000000;fill:#ff5a86;fill-opacity:1;fill-rule:evenodd;stroke:#ffffff;stroke-width:1.36416042;stroke-opacity:1;marker:none;visibility:visible;display:inline;overflow:visible;enable-background:accumulate" />
      </g>
      <g
         transform="matrix(1.1976223,0,0,1.1976223,-492.45637,3644.4345)"
         id="g5441-7-2-5">
        <g
           transform="translate(-6.5297755,-32.555611)"
           id="text77970-7-4-3-5-3-38-5"
           style="font-size:10px;font-style:normal;font-variant:normal;font-weight:600;font-stretch:normal;text-align:center;line-height:125%;letter-spacing:15px;word-spacing:0px;text-anchor:middle;fill:#000000;fill-opacity:1;stroke:#000000;stroke-width:7;stroke-linecap:round;stroke-miterlimit:4;stroke-opacity:1;stroke-dasharray:none;font-family:URW Gothic L;-inkscape-font-specification:URW Gothic L Semi-Bold">
          <path
             d="m 3304.5107,-3165.6807 c 0,-1.1718 0,-2.207 0,-3.1054 0.039,-0.8984 0.078,-1.7774 0.1172,-2.6368 0.078,-0.8984 0.1758,-1.8359 0.293,-2.8125 0.1172,-0.9765 0.2539,-2.1288 0.4102,-3.457 1.6015,-0.5859 3.0468,-1.0546 4.3359,-1.4062 1.3281,-0.3516 2.6172,-0.625 3.8672,-0.8203 1.289,-0.1953 2.5781,-0.3125 3.8672,-0.3516 1.3281,-0.078 2.7539,-0.1172 4.2773,-0.1172 0.2734,0 0.6445,0.02 1.1133,0.059 0.4687,0 0.9375,0.02 1.4062,0.059 0.4688,0.039 0.8985,0.059 1.2891,0.059 0.3906,0 0.6445,0.02 0.7617,0.059 l 1.5821,0.8203 -0.879,0.7617 c -0.2734,-0.039 -0.8008,-0.059 -1.582,-0.059 -0.7422,0 -1.543,0 -2.4023,0 -0.8594,0 -1.6602,0 -2.4024,0 -0.7422,0 -1.2695,0.02 -1.582,0.059 -0.5469,0.078 -1.211,0.1954 -1.9922,0.3516 -0.7813,0.1172 -1.6016,0.2539 -2.4609,0.4101 -0.8203,0.1563 -1.6407,0.3321 -2.461,0.5274 -0.7812,0.1563 -1.5039,0.3125 -2.1679,0.4687 -0.625,0.1563 -1.1524,0.293 -1.5821,0.4102 -0.3906,0.1172 -0.5859,0.2149 -0.5859,0.2929 l 0,10.4297 15.5273,0 c 0,0.3907 -0.3125,0.7032 -0.9375,0.9375 -0.5859,0.2344 -1.3867,0.4493 -2.4023,0.6446 -0.9766,0.1562 -2.0508,0.3125 -3.2227,0.4687 -1.1328,0.1172 -2.2656,0.2344 -3.3984,0.3516 -1.0938,0.078 -2.0703,0.1758 -2.9297,0.2929 -0.8594,0.1173 -1.4844,0.2735 -1.875,0.4688 0,0.1953 0,0.5274 0,0.9961 0,0.4297 -0.019,0.8984 -0.059,1.4062 0,0.5079 0,1.0157 0,1.5235 l 0,0.9375 c 0,0.6641 -0.019,1.4648 -0.059,2.4023 0,0.8985 0.059,1.7774 0.1758,2.6367 0.1172,0.8204 0.3906,1.5235 0.8203,2.1094 0.4688,0.586 1.1914,0.8789 2.168,0.8789 1.3281,0 2.6367,-0.039 3.9258,-0.1172 1.3281,-0.078 2.6562,-0.1562 3.9843,-0.2343 1.3282,-0.1172 2.6367,-0.2344 3.9258,-0.3516 1.3281,-0.1172 2.6563,-0.1758 3.9844,-0.1758 l 1.2305,0 c -0.2735,0.3906 -0.6251,0.7813 -1.0547,1.1719 -0.4297,0.3906 -0.918,0.7422 -1.4649,1.0547 -0.5078,0.2734 -1.0351,0.5078 -1.582,0.7031 -0.5078,0.1953 -1.0156,0.293 -1.5234,0.293 l -12.8321,0 c -1.2109,0 -2.207,-0.3516 -2.9882,-1.0547 -0.7422,-0.7422 -1.3282,-1.6797 -1.7579,-2.8125 -0.4296,-1.1328 -0.7226,-2.3828 -0.8789,-3.75 -0.1171,-1.4063 -0.1953,-2.793 -0.2343,-4.1602 0,-1.4062 0.039,-2.6953 0.1172,-3.8672 0.078,-1.1718 0.1171,-2.0898 0.1171,-2.7539"
             id="path5181-1-6-3-6"
             style="font-size:60px;font-weight:bold;line-height:125%;writing-mode:lr-tb;stroke:#000000;stroke-width:7;stroke-linecap:round;stroke-linejoin:miter;stroke-miterlimit:4;stroke-opacity:1;stroke-dasharray:none;stroke-dashoffset:0;font-family:The Girl Next Door;-inkscape-font-specification:The Girl Next Door Bold" />
          <path
             d="m 3357.3037,-3148.0439 c -1.0938,-1.9141 -2.1289,-3.8477 -3.1055,-5.8008 -0.9765,-1.9922 -1.9336,-3.9649 -2.8711,-5.918 -0.9375,-1.9531 -1.914,-3.9062 -2.9296,-5.8594 -1.0157,-1.9531 -2.0899,-3.8476 -3.2227,-5.6836 l 0,-2.0507 c 0.4297,0 0.8398,0.098 1.2305,0.2929 0.4297,0.1563 0.8203,0.3711 1.1718,0.6446 0.3516,0.2734 0.6641,0.5859 0.9375,0.9375 0.3125,0.3125 0.5469,0.625 0.7032,0.9375 l 8.8476,17.6953 0.8203,0 c 0.1563,-0.5469 0.4102,-1.3867 0.7618,-2.5196 0.3906,-1.1328 0.8203,-2.4023 1.289,-3.8086 0.4688,-1.4453 0.957,-2.9492 1.4649,-4.5117 0.5078,-1.5625 1.0156,-3.0468 1.5234,-4.4531 0.5078,-1.4453 0.9375,-2.7344 1.2891,-3.8672 0.3906,-1.1328 0.6835,-1.9726 0.8789,-2.5195 0.2343,-0.7031 0.4882,-1.2109 0.7617,-1.5235 0.2734,-0.3515 0.8008,-0.5273 1.582,-0.5273 l 0,2.8125 -7.9687,25.7227 c 0,0.039 -0.1172,0.1171 -0.3516,0.2343 -0.1953,0.078 -0.4297,0.1563 -0.7031,0.2344 -0.2344,0.039 -0.4883,0.098 -0.7617,0.1758 -0.2344,0.078 -0.4297,0.1172 -0.586,0.1172 -0.1562,0 -0.332,-0.098 -0.5273,-0.293 -0.1563,-0.1953 -0.2344,-0.3516 -0.2344,-0.4687"
             id="path5183-8-4-0-2"
             style="font-size:60px;font-weight:bold;line-height:125%;writing-mode:lr-tb;stroke:#000000;stroke-width:7;stroke-linecap:round;stroke-linejoin:miter;stroke-miterlimit:4;stroke-opacity:1;stroke-dasharray:none;stroke-dashoffset:0;font-family:The Girl Next Door;-inkscape-font-specification:The Girl Next Door Bold" />
          <path
             d="m 3387.3623,-3164.9189 c 0,-1.7969 0.1953,-3.4571 0.5859,-4.9805 0.4297,-1.5625 1.0938,-2.8906 1.9922,-3.9844 0.8985,-1.0937 2.0508,-1.9531 3.4571,-2.5781 1.4453,-0.625 3.1445,-0.9375 5.0976,-0.9375 1.1328,0 2.1094,0.098 2.9297,0.293 0.8594,0.1953 1.5625,0.5469 2.1094,1.0546 0.5859,0.4688 1.0156,1.1134 1.289,1.9336 0.2735,0.7813 0.4102,1.7579 0.4102,2.9297 0,1.211 -0.2539,2.2461 -0.7617,3.1055 -0.4688,0.8203 -1.1133,1.5039 -1.9336,2.0508 -0.8203,0.5469 -1.7383,0.957 -2.7539,1.2304 -1.0157,0.2735 -2.0508,0.4102 -3.1055,0.4102 -0.1953,0 -0.4688,0.039 -0.8203,0.1172 -0.3516,0.078 -0.7617,0.1758 -1.2305,0.293 -0.4297,0.078 -0.8789,0.1758 -1.3476,0.2929 -0.4688,0.1172 -0.918,0.1954 -1.3477,0.2344 -0.3906,0 -0.7226,-0.019 -0.9961,-0.059 -0.2344,-0.078 -0.3515,-0.2539 -0.3515,-0.5273 0,-0.039 0.078,-0.1563 0.2343,-0.3516 0.1953,-0.2344 0.3907,-0.4687 0.586,-0.7031 0.1953,-0.2344 0.3711,-0.4688 0.5273,-0.7032 l 0.293,-0.2929 c 1.0547,-0.1563 2.1875,-0.2734 3.3984,-0.3516 1.25,-0.1172 2.3828,-0.332 3.3985,-0.6445 1.0546,-0.3125 1.9335,-0.8203 2.6367,-1.5235 0.7031,-0.7031 1.0546,-1.7382 1.0547,-3.1054 -1e-4,-0.7031 -0.1172,-1.25 -0.3516,-1.6406 -0.1953,-0.4297 -0.5078,-0.7617 -0.9375,-0.9961 -0.3906,-0.2344 -0.8594,-0.3906 -1.4062,-0.4688 -0.5469,-0.078 -1.1329,-0.1171 -1.7579,-0.1172 -1.3672,1e-4 -2.5586,0.2344 -3.5742,0.7031 -0.9765,0.4298 -1.7578,1.0548 -2.3437,1.875 -0.586,0.8204 -1.0352,1.7969 -1.3477,2.9297 -0.2734,1.1329 -0.4101,2.3829 -0.4101,3.75 0,0.8594 0.019,1.8751 0.059,3.0469 0.039,1.1328 0.1367,2.2852 0.2929,3.457 0.1953,1.1719 0.4492,2.3438 0.7617,3.5157 0.3125,1.1328 0.7227,2.1484 1.2305,3.0468 0.5469,0.8985 1.1719,1.6211 1.875,2.168 0.7422,0.5469 1.6211,0.8203 2.6367,0.8203 0.1953,0 0.4883,-0.039 0.8789,-0.1172 0.3906,-0.078 0.7813,-0.1562 1.1719,-0.2343 0.4297,-0.1172 0.8203,-0.2149 1.1719,-0.293 0.3906,-0.078 0.6836,-0.1563 0.8789,-0.2344 0.3125,-0.1172 0.7812,-0.3125 1.4062,-0.5859 0.625,-0.2735 1.3281,-0.586 2.1094,-0.9375 0.8203,-0.3516 1.6602,-0.7422 2.5195,-1.1719 0.8594,-0.4297 1.6797,-0.8203 2.461,-1.1719 0.7812,-0.3515 1.4843,-0.6836 2.1094,-0.9961 0.664,-0.3515 1.1327,-0.5859 1.4062,-0.7031 0.039,0.039 0.059,0.1563 0.059,0.3516 0,0.1953 0,0.332 0,0.4101 0,0.7032 -0.3516,1.4063 -1.0547,2.1094 -0.6641,0.6641 -1.5234,1.3086 -2.5781,1.9336 -1.0547,0.5859 -2.2461,1.1328 -3.5742,1.6406 -1.3282,0.5078 -2.5977,0.9375 -3.8086,1.2891 -1.211,0.3515 -2.3243,0.6445 -3.3399,0.8789 -1.0156,0.1953 -1.7773,0.293 -2.2851,0.293 -1.211,0 -2.3047,-0.2735 -3.2813,-0.8204 -0.9765,-0.5468 -1.8164,-1.289 -2.5195,-2.2265 -0.7031,-0.9375 -1.3086,-2.0117 -1.8164,-3.2227 -0.5078,-1.2109 -0.918,-2.4609 -1.2305,-3.75 -0.2734,-1.289 -0.4687,-2.5976 -0.5859,-3.9258 -0.1172,-1.3671 -0.1758,-2.6367 -0.1758,-3.8085"
             id="path5185-2-4-2-6"
             style="font-size:60px;font-weight:bold;line-height:125%;writing-mode:lr-tb;stroke:#000000;stroke-width:7;stroke-linecap:round;stroke-linejoin:miter;stroke-miterlimit:4;stroke-opacity:1;stroke-dasharray:none;stroke-dashoffset:0;font-family:The Girl Next Door;-inkscape-font-specification:The Girl Next Door Bold" />
          <path
             d="m 3429.3154,-3165.5049 0,-8.5547 c 0,-0.2343 0.02,-0.4296 0.059,-0.5859 0.039,-0.1953 0.1172,-0.3515 0.2344,-0.4688 0.1172,-0.1562 0.3125,-0.2538 0.5859,-0.2929 0.5469,0.3516 0.918,0.8594 1.1133,1.5234 0.1953,0.625 0.3516,1.2696 0.4688,1.9336 0.1171,0.625 0.2734,1.2305 0.4687,1.8164 0.2344,0.5469 0.6055,0.918 1.1133,1.1133 0.6641,-1.1328 1.3281,-2.1875 1.9922,-3.1641 0.664,-0.9765 1.4062,-1.8359 2.2265,-2.5781 0.8594,-0.7422 1.7969,-1.3086 2.8125,-1.6992 1.0157,-0.3906 2.2266,-0.5859 3.6329,-0.586 0.8203,1e-4 1.6601,0.078 2.5195,0.2344 0.8984,0.1563 1.6992,0.4297 2.4023,0.8203 0.7422,0.3907 1.3477,0.9376 1.8164,1.6407 0.4688,0.664 0.7031,1.5039 0.7032,2.5195 -0.7813,0 -1.4844,-0.1367 -2.1094,-0.4102 -0.586,-0.3124 -1.1719,-0.6445 -1.7578,-0.9961 -0.586,-0.3515 -1.211,-0.664 -1.875,-0.9375 -0.6641,-0.3124 -1.4453,-0.4687 -2.3438,-0.4687 -1.1719,0 -2.2265,0.3125 -3.164,0.9375 -0.9375,0.586 -1.7774,1.3867 -2.5196,2.4023 -0.7422,1.0157 -1.3867,2.1876 -1.9336,3.5157 -0.5468,1.3281 -1.0351,2.7344 -1.4648,4.2187 -0.3906,1.4844 -0.7031,2.9883 -0.9375,4.5117 -0.2344,1.4844 -0.4297,2.9297 -0.5859,4.336 -0.1563,1.3672 -0.2735,2.6367 -0.3516,3.8086 -0.039,1.1718 -0.059,2.1289 -0.059,2.8711 l -2.3437,0 c -0.1563,-1.0547 -0.2735,-2.2657 -0.3516,-3.6329 -0.078,-1.4062 -0.1367,-2.871 -0.1758,-4.3945 -0.039,-1.5625 -0.078,-3.1445 -0.1172,-4.7461 -0.039,-1.6015 -0.059,-3.164 -0.059,-4.6875"
             id="path5187-8-1-8-4"
             style="font-size:60px;font-weight:bold;line-height:125%;writing-mode:lr-tb;stroke:#000000;stroke-width:7;stroke-linecap:round;stroke-linejoin:miter;stroke-miterlimit:4;stroke-opacity:1;stroke-dasharray:none;stroke-dashoffset:0;font-family:The Girl Next Door;-inkscape-font-specification:The Girl Next Door Bold" />
          <path
             d="m 3469.9795,-3164.9189 c 0,-1.7969 0.1953,-3.4571 0.5859,-4.9805 0.4297,-1.5625 1.0938,-2.8906 1.9922,-3.9844 0.8984,-1.0937 2.0508,-1.9531 3.457,-2.5781 1.4454,-0.625 3.1446,-0.9375 5.0977,-0.9375 1.1328,0 2.1094,0.098 2.9297,0.293 0.8593,0.1953 1.5625,0.5469 2.1094,1.0546 0.5859,0.4688 1.0156,1.1134 1.289,1.9336 0.2734,0.7813 0.4102,1.7579 0.4102,2.9297 0,1.211 -0.2539,2.2461 -0.7617,3.1055 -0.4688,0.8203 -1.1133,1.5039 -1.9336,2.0508 -0.8204,0.5469 -1.7383,0.957 -2.7539,1.2304 -1.0157,0.2735 -2.0508,0.4102 -3.1055,0.4102 -0.1953,0 -0.4688,0.039 -0.8203,0.1172 -0.3516,0.078 -0.7617,0.1758 -1.2305,0.293 -0.4297,0.078 -0.8789,0.1758 -1.3476,0.2929 -0.4688,0.1172 -0.918,0.1954 -1.3477,0.2344 -0.3906,0 -0.7227,-0.019 -0.9961,-0.059 -0.2344,-0.078 -0.3516,-0.2539 -0.3516,-0.5273 0,-0.039 0.078,-0.1563 0.2344,-0.3516 0.1953,-0.2344 0.3906,-0.4687 0.586,-0.7031 0.1953,-0.2344 0.371,-0.4688 0.5273,-0.7032 l 0.293,-0.2929 c 1.0547,-0.1563 2.1875,-0.2734 3.3984,-0.3516 1.25,-0.1172 2.3828,-0.332 3.3984,-0.6445 1.0547,-0.3125 1.9336,-0.8203 2.6368,-1.5235 0.7031,-0.7031 1.0546,-1.7382 1.0547,-3.1054 -10e-5,-0.7031 -0.1173,-1.25 -0.3516,-1.6406 -0.1953,-0.4297 -0.5078,-0.7617 -0.9375,-0.9961 -0.3906,-0.2344 -0.8594,-0.3906 -1.4063,-0.4688 -0.5468,-0.078 -1.1328,-0.1171 -1.7578,-0.1172 -1.3672,1e-4 -2.5586,0.2344 -3.5742,0.7031 -0.9766,0.4298 -1.7578,1.0548 -2.3437,1.875 -0.586,0.8204 -1.0352,1.7969 -1.3477,2.9297 -0.2734,1.1329 -0.4102,2.3829 -0.4102,3.75 0,0.8594 0.02,1.8751 0.059,3.0469 0.039,1.1328 0.1368,2.2852 0.293,3.457 0.1953,1.1719 0.4492,2.3438 0.7617,3.5157 0.3125,1.1328 0.7227,2.1484 1.2305,3.0468 0.5469,0.8985 1.1719,1.6211 1.875,2.168 0.7422,0.5469 1.6211,0.8203 2.6367,0.8203 0.1953,0 0.4883,-0.039 0.8789,-0.1172 0.3906,-0.078 0.7813,-0.1562 1.1719,-0.2343 0.4297,-0.1172 0.8203,-0.2149 1.1719,-0.293 0.3906,-0.078 0.6836,-0.1563 0.8789,-0.2344 0.3125,-0.1172 0.7812,-0.3125 1.4062,-0.5859 0.625,-0.2735 1.3281,-0.586 2.1094,-0.9375 0.8203,-0.3516 1.6601,-0.7422 2.5195,-1.1719 0.8594,-0.4297 1.6797,-0.8203 2.461,-1.1719 0.7812,-0.3515 1.4843,-0.6836 2.1093,-0.9961 0.6641,-0.3515 1.1328,-0.5859 1.4063,-0.7031 0.039,0.039 0.059,0.1563 0.059,0.3516 0,0.1953 0,0.332 0,0.4101 0,0.7032 -0.3516,1.4063 -1.0547,2.1094 -0.6641,0.6641 -1.5235,1.3086 -2.5781,1.9336 -1.0547,0.5859 -2.2461,1.1328 -3.5742,1.6406 -1.3282,0.5078 -2.5977,0.9375 -3.8086,1.2891 -1.211,0.3515 -2.3243,0.6445 -3.3399,0.8789 -1.0156,0.1953 -1.7773,0.293 -2.2851,0.293 -1.211,0 -2.3047,-0.2735 -3.2813,-0.8204 -0.9766,-0.5468 -1.8164,-1.289 -2.5195,-2.2265 -0.7031,-0.9375 -1.3086,-2.0117 -1.8164,-3.2227 -0.5078,-1.2109 -0.918,-2.4609 -1.2305,-3.75 -0.2734,-1.289 -0.4687,-2.5976 -0.5859,-3.9258 -0.1172,-1.3671 -0.1758,-2.6367 -0.1758,-3.8085"
             id="path5189-6-2-6-7"
             style="font-size:60px;font-weight:bold;line-height:125%;writing-mode:lr-tb;stroke:#000000;stroke-width:7;stroke-linecap:round;stroke-linejoin:miter;stroke-miterlimit:4;stroke-opacity:1;stroke-dasharray:none;stroke-dashoffset:0;font-family:The Girl Next Door;-inkscape-font-specification:The Girl Next Door Bold" />
          <path
             d="m 3510.9951,-3155.3096 c -0.039,-0.1171 -0.059,-0.3711 -0.059,-0.7617 0,-0.4297 0,-0.7226 0,-0.8789 0,-0.1172 -0.019,-0.293 -0.059,-0.5273 0,-0.2735 0.02,-0.5274 0.059,-0.7618 0.039,-0.2343 0.1172,-0.4492 0.2344,-0.6445 0.1172,-0.1953 0.3125,-0.332 0.5859,-0.4101 -0.039,0.7812 0.1368,1.5429 0.5274,2.2851 0.3906,0.7422 0.8984,1.4844 1.5234,2.2266 0.625,0.7031 1.3281,1.3867 2.1094,2.0508 0.8203,0.625 1.6601,1.1718 2.5195,1.6406 0.8985,0.4297 1.7578,0.7812 2.5781,1.0547 0.8594,0.2734 1.6602,0.4101 2.4024,0.4101 1.3672,0 2.7539,-0.2343 4.1601,-0.7031 1.4063,-0.4687 2.6563,-1.1133 3.75,-1.9336 1.1328,-0.8594 2.0508,-1.8945 2.754,-3.1055 0.7031,-1.2109 1.0546,-2.5781 1.0546,-4.1015 0,-0.9375 -0.293,-1.7188 -0.8789,-2.3438 -0.5469,-0.664 -1.289,-1.2304 -2.2265,-1.6992 -0.8985,-0.5078 -1.9336,-0.9179 -3.1055,-1.2305 -1.1328,-0.3515 -2.3242,-0.6835 -3.5742,-0.9961 -1.211,-0.3124 -2.4024,-0.6445 -3.5742,-0.9961 -1.1719,-0.3515 -2.2266,-0.7617 -3.1641,-1.2304 -0.8984,-0.5078 -1.6211,-1.0937 -2.168,-1.7578 -0.5468,-0.6641 -0.8203,-1.5039 -0.8203,-2.5196 0,-0.8984 0.1953,-1.6796 0.586,-2.3437 0.4296,-0.7031 0.9765,-1.3281 1.6406,-1.875 0.7031,-0.5469 1.4844,-0.9961 2.3437,-1.3477 0.8985,-0.3906 1.7969,-0.7031 2.6953,-0.9375 0.8985,-0.2734 1.7774,-0.4492 2.6368,-0.5273 0.8984,-0.1172 1.6992,-0.1758 2.4023,-0.1758 0.8984,0 1.6797,0.02 2.3438,0.059 0.7031,0 1.3476,0.098 1.9336,0.293 0.5859,0.1953 1.1132,0.5078 1.582,0.9375 0.4687,0.4297 0.8789,1.1133 1.2305,2.0507 -0.1563,0.3126 -0.3321,0.5274 -0.5274,0.6446 -0.1563,0.078 -0.3906,0.1172 -0.7031,0.1172 -0.4297,0 -0.8008,-0.1563 -1.1133,-0.4688 -0.2735,-0.3515 -0.5664,-0.7421 -0.8789,-1.1719 -0.1172,10e-5 -0.3516,10e-5 -0.7031,0 -0.3516,-0.039 -0.7227,-0.058 -1.1133,-0.059 -0.3516,1e-4 -0.7032,1e-4 -1.0547,0 -0.3125,1e-4 -0.5469,1e-4 -0.7031,0 -0.4688,1e-4 -1.0547,0.02 -1.7578,0.059 -0.6641,0.039 -1.3868,0.1173 -2.168,0.2344 -0.7422,0.1172 -1.4844,0.293 -2.2266,0.5274 -0.7031,0.2344 -1.3672,0.5273 -1.9922,0.8789 -0.5859,0.3516 -1.0742,0.8008 -1.4648,1.3476 -0.3516,0.5079 -0.5273,1.1133 -0.5273,1.8164 0,0.6251 0.1171,1.1133 0.3515,1.4649 0.2735,0.3516 0.7227,0.7031 1.3477,1.0547 0.2734,0 0.6836,0.098 1.2304,0.2929 0.5469,0.1563 1.1524,0.3321 1.8165,0.5274 0.7031,0.1953 1.4257,0.4102 2.1679,0.6445 0.7813,0.1953 1.5039,0.4102 2.168,0.6445 0.7031,0.2344 1.3086,0.4493 1.8164,0.6446 0.5469,0.1953 0.957,0.332 1.2305,0.4101 0.9374,0.3516 1.8945,0.7032 2.8711,1.0547 0.9765,0.3516 1.8554,0.8008 2.6367,1.3477 0.7812,0.5078 1.4062,1.1523 1.875,1.9336 0.4687,0.7422 0.7031,1.6992 0.7031,2.8711 0,1.7578 -0.4688,3.3789 -1.4062,4.8632 -0.9376,1.4454 -2.129,2.7149 -3.5743,3.8086 -1.4062,1.0547 -2.9687,1.8946 -4.6875,2.5196 -1.6797,0.5859 -3.3203,0.8789 -4.9218,0.8789 -1.4063,0 -2.7149,-0.1953 -3.9258,-0.586 -1.211,-0.4297 -2.3438,-1.0156 -3.3985,-1.7578 -1.0156,-0.7422 -1.9726,-1.582 -2.8711,-2.5195 -0.8984,-0.9766 -1.7382,-2.0508 -2.5195,-3.2227"
             id="path5191-6-1-5-8"
             style="font-size:60px;font-weight:bold;line-height:125%;writing-mode:lr-tb;stroke:#000000;stroke-width:7;stroke-linecap:round;stroke-linejoin:miter;stroke-miterlimit:4;stroke-opacity:1;stroke-dasharray:none;stroke-dashoffset:0;font-family:The Girl Next Door;-inkscape-font-specification:The Girl Next Door Bold" />
          <path
             d="m 3554.6215,-3158.7798 c -0.6089,-0.8925 -0.9822,-1.5636 -1.1198,-2.0135 -0.1014,-0.4642 -0.01,-0.816 0.2725,-1.0553 0.2685,-0.2754 0.6712,-0.4784 1.208,-0.6087 0.5586,-0.1812 1.139,-0.413 1.7412,-0.6956 0.6385,-0.297 1.2698,-0.7174 1.8939,-1.2612 0.6603,-0.5582 1.2083,-1.345 1.644,-2.3603 -0.087,-0.428 -0.2824,-1.1282 -0.5865,-2.1003 -0.2825,-1.0229 -0.6157,-2.1727 -0.9995,-3.4496 -0.3476,-1.2913 -0.735,-2.6297 -1.1624,-4.0155 -0.4055,-1.4363 -0.8002,-2.793 -1.1841,-4.0698 -0.3839,-1.2768 -0.7279,-2.4013 -1.0321,-3.3735 -0.2679,-0.9866 -0.4453,-1.6939 -0.5322,-2.1219 l 0.4353,-0.1739 c 0.1088,-0.044 0.2284,-0.1128 0.3591,-0.207 0.1305,-0.094 0.2612,-0.1883 0.3917,-0.2827 0.1307,-0.094 0.2577,-0.1449 0.381,-0.1522 0.1088,-0.043 0.2466,-0.014 0.4134,0.087 0.5651,1.2044 1.1054,2.608 1.6189,4.2117 0.5143,1.6033 1.0212,3.2936 1.5209,5.071 0.536,1.7629 1.0901,3.5186 1.6624,5.2669 0.5722,1.7485 1.2276,3.3374 1.9676,4.7665 l 10.2734,-4.9241 0.4669,2.2742 -8.8047,4.9684 c -0.2258,1.8568 -0.136,3.7138 0.2694,5.571 0.3909,1.8209 0.9668,3.5257 1.7277,5.1146 0.7465,1.5527 1.6017,2.9567 2.5659,4.212 1.0004,1.2409 1.9865,2.235 2.9581,2.9826 1.008,0.7331 1.9435,1.1797 2.8066,1.3397 0.8487,0.1237 1.5269,-0.1263 2.0352,-0.7495 0.7036,-0.2391 1.2659,-0.5692 1.687,-0.9894 0.4426,-0.4712 0.7657,-0.9789 0.969,-1.5228 0.2033,-0.5439 0.3378,-1.1024 0.4033,-1.6755 0.051,-0.6092 0.073,-1.1859 0.066,-1.7299 0.029,-0.5585 0.08,-1.0626 0.153,-1.5123 0.1091,-0.4643 0.2724,-0.8449 0.4902,-1.1422 0.029,0.072 0.1159,0.2902 0.2608,0.6529 0.1666,0.3121 0.2721,0.5222 0.3156,0.6311 0.4202,1.0519 0.6374,2.1219 0.6514,3.2101 -5e-4,1.0517 -0.1787,2.0273 -0.5345,2.9265 -0.3195,0.8848 -0.8422,1.6825 -1.5679,2.393 -0.6894,0.6961 -1.5238,1.2398 -2.5033,1.631 -1.625,0.5652 -3.0795,0.6623 -4.3632,0.2918 -1.2983,-0.4069 -2.4912,-1.1292 -3.5788,-2.1669 -1.0876,-1.0378 -2.0444,-2.275 -2.8707,-3.7117 -0.8044,-1.4873 -1.5256,-3.0291 -2.1631,-4.6251 -0.6376,-1.5962 -1.2173,-3.1523 -1.7388,-4.6686 -0.4997,-1.5671 -0.9343,-2.9708 -1.3037,-4.2114 l -7.5638,3.9679"
             id="path5193-9-3-1-8"
             style="font-size:60px;font-weight:bold;line-height:125%;writing-mode:lr-tb;stroke:#ffffff;stroke-width:7;stroke-linecap:round;stroke-linejoin:miter;stroke-miterlimit:4;stroke-opacity:1;stroke-dasharray:none;stroke-dashoffset:0;font-family:The Girl Next Door;-inkscape-font-specification:The Girl Next Door Bold" />
        </g>
        <g
           transform="translate(-6.5297755,-33.060711)"
           id="text77970-7-4-30-8-4-3"
           style="font-size:10px;font-style:normal;font-variant:normal;font-weight:600;font-stretch:normal;text-align:center;line-height:125%;letter-spacing:15px;word-spacing:0px;text-anchor:middle;fill:#ffffff;fill-opacity:1;stroke:#ffffff;stroke-width:5;stroke-linecap:round;stroke-miterlimit:4;stroke-opacity:1;font-family:URW Gothic L;-inkscape-font-specification:URW Gothic L Semi-Bold">
          <path
             d="m 3304.5107,-3163.8118 c 0,-1.1718 0,-2.207 0,-3.1054 0.039,-0.8985 0.078,-1.7774 0.1172,-2.6368 0.078,-0.8984 0.1758,-1.8359 0.293,-2.8125 0.1172,-0.9765 0.2539,-2.1288 0.4102,-3.457 1.6015,-0.5859 3.0468,-1.0546 4.3359,-1.4062 1.3281,-0.3516 2.6172,-0.625 3.8672,-0.8203 1.289,-0.1953 2.5781,-0.3125 3.8672,-0.3516 1.3281,-0.078 2.7539,-0.1172 4.2773,-0.1172 0.2734,0 0.6445,0.02 1.1133,0.059 0.4687,0 0.9375,0.02 1.4062,0.059 0.4688,0.039 0.8985,0.059 1.2891,0.059 0.3906,0 0.6445,0.019 0.7617,0.059 l 1.5821,0.8203 -0.879,0.7617 c -0.2734,-0.039 -0.8008,-0.059 -1.582,-0.059 -0.7422,0 -1.543,0 -2.4023,0 -0.8594,0 -1.6602,0 -2.4024,0 -0.7422,0 -1.2695,0.02 -1.582,0.059 -0.5469,0.078 -1.211,0.1954 -1.9922,0.3516 -0.7813,0.1172 -1.6016,0.2539 -2.4609,0.4101 -0.8203,0.1563 -1.6407,0.3321 -2.461,0.5274 -0.7812,0.1562 -1.5039,0.3125 -2.1679,0.4687 -0.625,0.1563 -1.1524,0.293 -1.5821,0.4102 -0.3906,0.1172 -0.5859,0.2148 -0.5859,0.2929 l 0,10.4297 15.5273,0 c 0,0.3907 -0.3125,0.7032 -0.9375,0.9375 -0.5859,0.2344 -1.3867,0.4493 -2.4023,0.6446 -0.9766,0.1562 -2.0508,0.3125 -3.2227,0.4687 -1.1328,0.1172 -2.2656,0.2344 -3.3984,0.3516 -1.0938,0.078 -2.0703,0.1758 -2.9297,0.2929 -0.8594,0.1172 -1.4844,0.2735 -1.875,0.4688 0,0.1953 0,0.5274 0,0.9961 0,0.4297 -0.019,0.8984 -0.059,1.4062 0,0.5079 0,1.0157 0,1.5235 l 0,0.9375 c 0,0.664 -0.019,1.4648 -0.059,2.4023 0,0.8985 0.059,1.7774 0.1758,2.6367 0.1172,0.8204 0.3906,1.5235 0.8203,2.1094 0.4688,0.586 1.1914,0.8789 2.168,0.8789 1.3281,0 2.6367,-0.039 3.9258,-0.1172 1.3281,-0.078 2.6562,-0.1562 3.9843,-0.2343 1.3282,-0.1172 2.6367,-0.2344 3.9258,-0.3516 1.3281,-0.1172 2.6563,-0.1758 3.9844,-0.1758 l 1.2305,0 c -0.2735,0.3906 -0.6251,0.7813 -1.0547,1.1719 -0.4297,0.3906 -0.918,0.7422 -1.4649,1.0547 -0.5078,0.2734 -1.0351,0.5078 -1.582,0.7031 -0.5078,0.1953 -1.0156,0.293 -1.5234,0.293 l -12.8321,0 c -1.2109,0 -2.207,-0.3516 -2.9882,-1.0547 -0.7422,-0.7422 -1.3282,-1.6797 -1.7579,-2.8125 -0.4296,-1.1328 -0.7226,-2.3828 -0.8789,-3.75 -0.1171,-1.4063 -0.1953,-2.793 -0.2343,-4.1602 0,-1.4062 0.039,-2.6953 0.1172,-3.8672 0.078,-1.1718 0.1171,-2.0898 0.1171,-2.7539"
             id="path5166-5-4-1-7"
             style="font-size:60px;font-weight:bold;line-height:125%;writing-mode:lr-tb;fill:#ffffff;fill-opacity:1;stroke:#ffffff;stroke-linecap:round;stroke-linejoin:miter;stroke-opacity:1;stroke-dashoffset:0;font-family:The Girl Next Door;-inkscape-font-specification:The Girl Next Door Bold" />
          <path
             d="m 3357.3037,-3146.175 c -1.0938,-1.9141 -2.1289,-3.8477 -3.1055,-5.8008 -0.9765,-1.9922 -1.9336,-3.9649 -2.8711,-5.918 -0.9375,-1.9531 -1.914,-3.9062 -2.9296,-5.8594 -1.0157,-1.9531 -2.0899,-3.8476 -3.2227,-5.6836 l 0,-2.0507 c 0.4297,0 0.8398,0.098 1.2305,0.2929 0.4297,0.1563 0.8203,0.3711 1.1718,0.6446 0.3516,0.2734 0.6641,0.5859 0.9375,0.9375 0.3125,0.3125 0.5469,0.625 0.7032,0.9375 l 8.8476,17.6953 0.8203,0 c 0.1563,-0.5469 0.4102,-1.3867 0.7618,-2.5196 0.3906,-1.1328 0.8203,-2.4023 1.289,-3.8086 0.4688,-1.4453 0.957,-2.9492 1.4649,-4.5117 0.5078,-1.5625 1.0156,-3.0468 1.5234,-4.4531 0.5078,-1.4453 0.9375,-2.7344 1.2891,-3.8672 0.3906,-1.1328 0.6835,-1.9726 0.8789,-2.5195 0.2343,-0.7031 0.4882,-1.2109 0.7617,-1.5235 0.2734,-0.3515 0.8008,-0.5273 1.582,-0.5273 l 0,2.8125 -7.9687,25.7227 c 0,0.039 -0.1172,0.1171 -0.3516,0.2343 -0.1953,0.078 -0.4297,0.1563 -0.7031,0.2344 -0.2344,0.039 -0.4883,0.098 -0.7617,0.1758 -0.2344,0.078 -0.4297,0.1172 -0.586,0.1172 -0.1562,0 -0.332,-0.098 -0.5273,-0.293 -0.1563,-0.1953 -0.2344,-0.3516 -0.2344,-0.4687"
             id="path5168-8-3-3-9"
             style="font-size:60px;font-weight:bold;line-height:125%;writing-mode:lr-tb;fill:#ffffff;fill-opacity:1;stroke:#ffffff;stroke-linecap:round;stroke-linejoin:miter;stroke-opacity:1;stroke-dashoffset:0;font-family:The Girl Next Door;-inkscape-font-specification:The Girl Next Door Bold" />
          <path
             d="m 3387.3623,-3163.05 c 0,-1.7969 0.1953,-3.4571 0.5859,-4.9805 0.4297,-1.5625 1.0938,-2.8906 1.9922,-3.9844 0.8985,-1.0937 2.0508,-1.9531 3.4571,-2.5781 1.4453,-0.625 3.1445,-0.9375 5.0976,-0.9375 1.1328,0 2.1094,0.098 2.9297,0.293 0.8594,0.1953 1.5625,0.5469 2.1094,1.0546 0.5859,0.4688 1.0156,1.1133 1.289,1.9336 0.2735,0.7813 0.4102,1.7579 0.4102,2.9297 0,1.211 -0.2539,2.2461 -0.7617,3.1055 -0.4688,0.8203 -1.1133,1.5039 -1.9336,2.0508 -0.8203,0.5469 -1.7383,0.957 -2.7539,1.2304 -1.0157,0.2735 -2.0508,0.4102 -3.1055,0.4102 -0.1953,0 -0.4688,0.039 -0.8203,0.1172 -0.3516,0.078 -0.7617,0.1758 -1.2305,0.293 -0.4297,0.078 -0.8789,0.1757 -1.3476,0.2929 -0.4688,0.1172 -0.918,0.1953 -1.3477,0.2344 -0.3906,0 -0.7226,-0.019 -0.9961,-0.059 -0.2344,-0.078 -0.3515,-0.2539 -0.3515,-0.5273 0,-0.039 0.078,-0.1563 0.2343,-0.3516 0.1953,-0.2344 0.3907,-0.4687 0.586,-0.7031 0.1953,-0.2344 0.3711,-0.4688 0.5273,-0.7032 l 0.293,-0.2929 c 1.0547,-0.1563 2.1875,-0.2734 3.3984,-0.3516 1.25,-0.1172 2.3828,-0.332 3.3985,-0.6445 1.0546,-0.3125 1.9335,-0.8203 2.6367,-1.5235 0.7031,-0.7031 1.0546,-1.7382 1.0547,-3.1054 -1e-4,-0.7031 -0.1172,-1.25 -0.3516,-1.6406 -0.1953,-0.4297 -0.5078,-0.7617 -0.9375,-0.9961 -0.3906,-0.2344 -0.8594,-0.3906 -1.4062,-0.4688 -0.5469,-0.078 -1.1329,-0.1172 -1.7579,-0.1172 -1.3672,0 -2.5586,0.2344 -3.5742,0.7031 -0.9765,0.4298 -1.7578,1.0548 -2.3437,1.875 -0.586,0.8204 -1.0352,1.7969 -1.3477,2.9297 -0.2734,1.1329 -0.4101,2.3829 -0.4101,3.75 0,0.8594 0.019,1.875 0.059,3.0469 0.039,1.1328 0.1367,2.2852 0.2929,3.457 0.1953,1.1719 0.4492,2.3438 0.7617,3.5157 0.3125,1.1328 0.7227,2.1484 1.2305,3.0468 0.5469,0.8985 1.1719,1.6211 1.875,2.168 0.7422,0.5469 1.6211,0.8203 2.6367,0.8203 0.1953,0 0.4883,-0.039 0.8789,-0.1172 0.3906,-0.078 0.7813,-0.1562 1.1719,-0.2343 0.4297,-0.1172 0.8203,-0.2149 1.1719,-0.293 0.3906,-0.078 0.6836,-0.1563 0.8789,-0.2344 0.3125,-0.1172 0.7812,-0.3125 1.4062,-0.5859 0.625,-0.2735 1.3281,-0.586 2.1094,-0.9375 0.8203,-0.3516 1.6602,-0.7422 2.5195,-1.1719 0.8594,-0.4297 1.6797,-0.8203 2.461,-1.1719 0.7812,-0.3515 1.4843,-0.6836 2.1094,-0.9961 0.664,-0.3515 1.1327,-0.5859 1.4062,-0.7031 0.039,0.039 0.059,0.1563 0.059,0.3516 0,0.1953 0,0.332 0,0.4101 0,0.7032 -0.3516,1.4063 -1.0547,2.1094 -0.6641,0.6641 -1.5234,1.3086 -2.5781,1.9336 -1.0547,0.5859 -2.2461,1.1328 -3.5742,1.6406 -1.3282,0.5078 -2.5977,0.9375 -3.8086,1.2891 -1.211,0.3515 -2.3243,0.6445 -3.3399,0.8789 -1.0156,0.1953 -1.7773,0.293 -2.2851,0.293 -1.211,0 -2.3047,-0.2735 -3.2813,-0.8204 -0.9765,-0.5468 -1.8164,-1.289 -2.5195,-2.2265 -0.7031,-0.9375 -1.3086,-2.0117 -1.8164,-3.2227 -0.5078,-1.2109 -0.918,-2.4609 -1.2305,-3.75 -0.2734,-1.289 -0.4687,-2.5976 -0.5859,-3.9258 -0.1172,-1.3671 -0.1758,-2.6367 -0.1758,-3.8085"
             id="path5170-1-5-8-1"
             style="font-size:60px;font-weight:bold;line-height:125%;writing-mode:lr-tb;fill:#ffffff;fill-opacity:1;stroke:#ffffff;stroke-linecap:round;stroke-linejoin:miter;stroke-opacity:1;stroke-dashoffset:0;font-family:The Girl Next Door;-inkscape-font-specification:The Girl Next Door Bold" />
          <path
             d="m 3429.3154,-3163.636 0,-8.5547 c 0,-0.2343 0.02,-0.4296 0.059,-0.5859 0.039,-0.1953 0.1172,-0.3515 0.2344,-0.4688 0.1172,-0.1562 0.3125,-0.2538 0.5859,-0.2929 0.5469,0.3516 0.918,0.8594 1.1133,1.5234 0.1953,0.625 0.3516,1.2696 0.4688,1.9336 0.1171,0.625 0.2734,1.2305 0.4687,1.8164 0.2344,0.5469 0.6055,0.918 1.1133,1.1133 0.6641,-1.1328 1.3281,-2.1875 1.9922,-3.1641 0.664,-0.9765 1.4062,-1.8359 2.2265,-2.5781 0.8594,-0.7422 1.7969,-1.3086 2.8125,-1.6992 1.0157,-0.3906 2.2266,-0.5859 3.6329,-0.586 0.8203,1e-4 1.6601,0.078 2.5195,0.2344 0.8984,0.1563 1.6992,0.4297 2.4023,0.8203 0.7422,0.3907 1.3477,0.9376 1.8164,1.6407 0.4688,0.664 0.7031,1.5039 0.7032,2.5195 -0.7813,0 -1.4844,-0.1367 -2.1094,-0.4102 -0.586,-0.3124 -1.1719,-0.6445 -1.7578,-0.9961 -0.586,-0.3515 -1.211,-0.664 -1.875,-0.9375 -0.6641,-0.3124 -1.4453,-0.4687 -2.3438,-0.4687 -1.1719,0 -2.2265,0.3125 -3.164,0.9375 -0.9375,0.586 -1.7774,1.3867 -2.5196,2.4023 -0.7422,1.0157 -1.3867,2.1876 -1.9336,3.5157 -0.5468,1.3281 -1.0351,2.7344 -1.4648,4.2187 -0.3906,1.4844 -0.7031,2.9883 -0.9375,4.5117 -0.2344,1.4844 -0.4297,2.9297 -0.5859,4.336 -0.1563,1.3672 -0.2735,2.6367 -0.3516,3.8086 -0.039,1.1718 -0.059,2.1289 -0.059,2.8711 l -2.3437,0 c -0.1563,-1.0547 -0.2735,-2.2657 -0.3516,-3.6329 -0.078,-1.4062 -0.1367,-2.871 -0.1758,-4.3945 -0.039,-1.5625 -0.078,-3.1445 -0.1172,-4.7461 -0.039,-1.6015 -0.059,-3.164 -0.059,-4.6875"
             id="path5172-2-9-9-8"
             style="font-size:60px;font-weight:bold;line-height:125%;writing-mode:lr-tb;fill:#ffffff;fill-opacity:1;stroke:#ffffff;stroke-linecap:round;stroke-linejoin:miter;stroke-opacity:1;stroke-dashoffset:0;font-family:The Girl Next Door;-inkscape-font-specification:The Girl Next Door Bold" />
          <path
             d="m 3469.9795,-3163.05 c 0,-1.7969 0.1953,-3.4571 0.5859,-4.9805 0.4297,-1.5625 1.0938,-2.8906 1.9922,-3.9844 0.8984,-1.0937 2.0508,-1.9531 3.457,-2.5781 1.4454,-0.625 3.1446,-0.9375 5.0977,-0.9375 1.1328,0 2.1094,0.098 2.9297,0.293 0.8593,0.1953 1.5625,0.5469 2.1094,1.0546 0.5859,0.4688 1.0156,1.1133 1.289,1.9336 0.2734,0.7813 0.4102,1.7579 0.4102,2.9297 0,1.211 -0.2539,2.2461 -0.7617,3.1055 -0.4688,0.8203 -1.1133,1.5039 -1.9336,2.0508 -0.8204,0.5469 -1.7383,0.957 -2.7539,1.2304 -1.0157,0.2735 -2.0508,0.4102 -3.1055,0.4102 -0.1953,0 -0.4688,0.039 -0.8203,0.1172 -0.3516,0.078 -0.7617,0.1758 -1.2305,0.293 -0.4297,0.078 -0.8789,0.1757 -1.3476,0.2929 -0.4688,0.1172 -0.918,0.1953 -1.3477,0.2344 -0.3906,0 -0.7227,-0.019 -0.9961,-0.059 -0.2344,-0.078 -0.3516,-0.2539 -0.3516,-0.5273 0,-0.039 0.078,-0.1563 0.2344,-0.3516 0.1953,-0.2344 0.3906,-0.4687 0.586,-0.7031 0.1953,-0.2344 0.371,-0.4688 0.5273,-0.7032 l 0.293,-0.2929 c 1.0547,-0.1563 2.1875,-0.2734 3.3984,-0.3516 1.25,-0.1172 2.3828,-0.332 3.3984,-0.6445 1.0547,-0.3125 1.9336,-0.8203 2.6368,-1.5235 0.7031,-0.7031 1.0546,-1.7382 1.0547,-3.1054 -10e-5,-0.7031 -0.1173,-1.25 -0.3516,-1.6406 -0.1953,-0.4297 -0.5078,-0.7617 -0.9375,-0.9961 -0.3906,-0.2344 -0.8594,-0.3906 -1.4063,-0.4688 -0.5468,-0.078 -1.1328,-0.1172 -1.7578,-0.1172 -1.3672,0 -2.5586,0.2344 -3.5742,0.7031 -0.9766,0.4298 -1.7578,1.0548 -2.3437,1.875 -0.586,0.8204 -1.0352,1.7969 -1.3477,2.9297 -0.2734,1.1329 -0.4102,2.3829 -0.4102,3.75 0,0.8594 0.02,1.875 0.059,3.0469 0.039,1.1328 0.1368,2.2852 0.293,3.457 0.1953,1.1719 0.4492,2.3438 0.7617,3.5157 0.3125,1.1328 0.7227,2.1484 1.2305,3.0468 0.5469,0.8985 1.1719,1.6211 1.875,2.168 0.7422,0.5469 1.6211,0.8203 2.6367,0.8203 0.1953,0 0.4883,-0.039 0.8789,-0.1172 0.3906,-0.078 0.7813,-0.1562 1.1719,-0.2343 0.4297,-0.1172 0.8203,-0.2149 1.1719,-0.293 0.3906,-0.078 0.6836,-0.1563 0.8789,-0.2344 0.3125,-0.1172 0.7812,-0.3125 1.4062,-0.5859 0.625,-0.2735 1.3281,-0.586 2.1094,-0.9375 0.8203,-0.3516 1.6601,-0.7422 2.5195,-1.1719 0.8594,-0.4297 1.6797,-0.8203 2.461,-1.1719 0.7812,-0.3515 1.4843,-0.6836 2.1093,-0.9961 0.6641,-0.3515 1.1328,-0.5859 1.4063,-0.7031 0.039,0.039 0.059,0.1563 0.059,0.3516 0,0.1953 0,0.332 0,0.4101 0,0.7032 -0.3516,1.4063 -1.0547,2.1094 -0.6641,0.6641 -1.5235,1.3086 -2.5781,1.9336 -1.0547,0.5859 -2.2461,1.1328 -3.5742,1.6406 -1.3282,0.5078 -2.5977,0.9375 -3.8086,1.2891 -1.211,0.3515 -2.3243,0.6445 -3.3399,0.8789 -1.0156,0.1953 -1.7773,0.293 -2.2851,0.293 -1.211,0 -2.3047,-0.2735 -3.2813,-0.8204 -0.9766,-0.5468 -1.8164,-1.289 -2.5195,-2.2265 -0.7031,-0.9375 -1.3086,-2.0117 -1.8164,-3.2227 -0.5078,-1.2109 -0.918,-2.4609 -1.2305,-3.75 -0.2734,-1.289 -0.4687,-2.5976 -0.5859,-3.9258 -0.1172,-1.3671 -0.1758,-2.6367 -0.1758,-3.8085"
             id="path5174-3-2-5-5"
             style="font-size:60px;font-weight:bold;line-height:125%;writing-mode:lr-tb;fill:#ffffff;fill-opacity:1;stroke:#ffffff;stroke-linecap:round;stroke-linejoin:miter;stroke-opacity:1;stroke-dashoffset:0;font-family:The Girl Next Door;-inkscape-font-specification:The Girl Next Door Bold" />
          <path
             d="m 3510.9951,-3153.4407 c -0.039,-0.1172 -0.059,-0.3711 -0.059,-0.7617 0,-0.4297 0,-0.7226 0,-0.8789 0,-0.1172 -0.019,-0.293 -0.059,-0.5273 0,-0.2735 0.02,-0.5274 0.059,-0.7618 0.039,-0.2343 0.1172,-0.4492 0.2344,-0.6445 0.1172,-0.1953 0.3125,-0.332 0.5859,-0.4101 -0.039,0.7812 0.1368,1.5429 0.5274,2.2851 0.3906,0.7422 0.8984,1.4844 1.5234,2.2266 0.625,0.7031 1.3281,1.3867 2.1094,2.0508 0.8203,0.625 1.6601,1.1718 2.5195,1.6406 0.8985,0.4297 1.7578,0.7812 2.5781,1.0547 0.8594,0.2734 1.6602,0.4101 2.4024,0.4101 1.3672,0 2.7539,-0.2344 4.1601,-0.7031 1.4063,-0.4688 2.6563,-1.1133 3.75,-1.9336 1.1328,-0.8594 2.0508,-1.8945 2.754,-3.1055 0.7031,-1.2109 1.0546,-2.5781 1.0546,-4.1015 0,-0.9375 -0.293,-1.7188 -0.8789,-2.3438 -0.5469,-0.664 -1.289,-1.2304 -2.2265,-1.6992 -0.8985,-0.5078 -1.9336,-0.918 -3.1055,-1.2305 -1.1328,-0.3515 -2.3242,-0.6835 -3.5742,-0.9961 -1.211,-0.3124 -2.4024,-0.6445 -3.5742,-0.9961 -1.1719,-0.3515 -2.2266,-0.7617 -3.1641,-1.2304 -0.8984,-0.5078 -1.6211,-1.0938 -2.168,-1.7578 -0.5468,-0.6641 -0.8203,-1.5039 -0.8203,-2.5196 0,-0.8984 0.1953,-1.6796 0.586,-2.3437 0.4296,-0.7031 0.9765,-1.3281 1.6406,-1.875 0.7031,-0.5469 1.4844,-0.9961 2.3437,-1.3477 0.8985,-0.3906 1.7969,-0.7031 2.6953,-0.9375 0.8985,-0.2734 1.7774,-0.4492 2.6368,-0.5273 0.8984,-0.1172 1.6992,-0.1758 2.4023,-0.1758 0.8984,0 1.6797,0.02 2.3438,0.059 0.7031,0 1.3476,0.098 1.9336,0.293 0.5859,0.1953 1.1132,0.5078 1.582,0.9375 0.4687,0.4297 0.8789,1.1133 1.2305,2.0507 -0.1563,0.3126 -0.3321,0.5274 -0.5274,0.6446 -0.1563,0.078 -0.3906,0.1172 -0.7031,0.1172 -0.4297,0 -0.8008,-0.1563 -1.1133,-0.4688 -0.2735,-0.3515 -0.5664,-0.7421 -0.8789,-1.1719 -0.1172,10e-5 -0.3516,10e-5 -0.7031,0 -0.3516,-0.039 -0.7227,-0.059 -1.1133,-0.059 -0.3516,1e-4 -0.7032,1e-4 -1.0547,0 -0.3125,1e-4 -0.5469,1e-4 -0.7031,0 -0.4688,1e-4 -1.0547,0.02 -1.7578,0.059 -0.6641,0.039 -1.3868,0.1173 -2.168,0.2344 -0.7422,0.1172 -1.4844,0.293 -2.2266,0.5274 -0.7031,0.2344 -1.3672,0.5273 -1.9922,0.8789 -0.5859,0.3516 -1.0742,0.8008 -1.4648,1.3476 -0.3516,0.5079 -0.5273,1.1133 -0.5273,1.8164 0,0.6251 0.1171,1.1133 0.3515,1.4649 0.2735,0.3516 0.7227,0.7031 1.3477,1.0547 0.2734,0 0.6836,0.098 1.2304,0.2929 0.5469,0.1563 1.1524,0.3321 1.8165,0.5274 0.7031,0.1953 1.4257,0.4101 2.1679,0.6445 0.7813,0.1953 1.5039,0.4102 2.168,0.6445 0.7031,0.2344 1.3086,0.4493 1.8164,0.6446 0.5469,0.1953 0.957,0.332 1.2305,0.4101 0.9374,0.3516 1.8945,0.7032 2.8711,1.0547 0.9765,0.3516 1.8554,0.8008 2.6367,1.3477 0.7812,0.5078 1.4062,1.1523 1.875,1.9336 0.4687,0.7422 0.7031,1.6992 0.7031,2.8711 0,1.7578 -0.4688,3.3789 -1.4062,4.8632 -0.9376,1.4454 -2.129,2.7149 -3.5743,3.8086 -1.4062,1.0547 -2.9687,1.8946 -4.6875,2.5196 -1.6797,0.5859 -3.3203,0.8789 -4.9218,0.8789 -1.4063,0 -2.7149,-0.1953 -3.9258,-0.586 -1.211,-0.4297 -2.3438,-1.0156 -3.3985,-1.7578 -1.0156,-0.7422 -1.9726,-1.582 -2.8711,-2.5195 -0.8984,-0.9766 -1.7382,-2.0508 -2.5195,-3.2227"
             id="path5176-9-1-8-1"
             style="font-size:60px;font-weight:bold;line-height:125%;writing-mode:lr-tb;fill:#ffffff;fill-opacity:1;stroke:#ffffff;stroke-linecap:round;stroke-linejoin:miter;stroke-opacity:1;stroke-dashoffset:0;font-family:The Girl Next Door;-inkscape-font-specification:The Girl Next Door Bold" />
          <path
             d="m 3555.1274,-3157.0082 c -0.6089,-0.8925 -0.9822,-1.5636 -1.1198,-2.0135 -0.1014,-0.4642 -0.011,-0.816 0.2725,-1.0553 0.2686,-0.2755 0.6712,-0.4784 1.2081,-0.6088 0.5585,-0.1811 1.1389,-0.4129 1.7412,-0.6955 0.6384,-0.2971 1.2697,-0.7175 1.8938,-1.2613 0.6604,-0.5582 1.2083,-1.345 1.644,-2.3602 -0.087,-0.428 -0.2824,-1.1282 -0.5865,-2.1003 -0.2824,-1.0229 -0.6157,-2.1728 -0.9995,-3.4496 -0.3475,-1.2913 -0.735,-2.6298 -1.1624,-4.0155 -0.4055,-1.4363 -0.8002,-2.793 -1.1841,-4.0698 -0.3838,-1.2768 -0.7279,-2.4014 -1.0321,-3.3736 -0.2679,-0.9865 -0.4453,-1.6938 -0.5321,-2.1219 l 0.4352,-0.1738 c 0.1089,-0.044 0.2284,-0.1128 0.3591,-0.207 0.1306,-0.094 0.2612,-0.1883 0.3918,-0.2827 0.1306,-0.094 0.2576,-0.1449 0.3809,-0.1522 0.1088,-0.043 0.2466,-0.015 0.4134,0.087 0.5652,1.2044 1.1054,2.608 1.6189,4.2116 0.5143,1.6034 1.0212,3.2937 1.5209,5.0711 0.5361,1.7629 1.0901,3.5186 1.6624,5.2669 0.5722,1.7485 1.2276,3.3374 1.9676,4.7665 l 10.2734,-4.9241 0.4669,2.2742 -8.8046,4.9684 c -0.2258,1.8568 -0.136,3.7138 0.2693,5.571 0.3909,1.8209 0.9668,3.5257 1.7277,5.1146 0.7465,1.5527 1.6017,2.9567 2.5659,4.212 1.0004,1.2409 1.9865,2.235 2.9581,2.9826 1.008,0.7331 1.9435,1.1796 2.8066,1.3397 0.8487,0.1236 1.527,-0.1263 2.0352,-0.7495 0.7037,-0.2391 1.2659,-0.5692 1.687,-0.9894 0.4426,-0.4713 0.7657,-0.9789 0.969,-1.5228 0.2033,-0.544 0.3378,-1.1024 0.4034,-1.6755 0.051,-0.6092 0.073,-1.1859 0.066,-1.7299 0.029,-0.5586 0.08,-1.0626 0.153,-1.5123 0.1091,-0.4643 0.2724,-0.8449 0.4902,-1.1422 0.029,0.072 0.1159,0.2902 0.2608,0.6529 0.1666,0.3119 0.2721,0.5222 0.3156,0.631 0.4203,1.052 0.6374,2.122 0.6514,3.2101 -4e-4,1.0518 -0.1786,2.0274 -0.5344,2.9266 -0.3196,0.8848 -0.8423,1.6825 -1.568,2.393 -0.6894,0.696 -1.5238,1.2398 -2.5033,1.631 -1.625,0.5652 -3.0794,0.6623 -4.3632,0.2917 -1.2982,-0.4068 -2.4912,-1.1291 -3.5788,-2.1668 -1.0875,-1.0378 -2.0444,-2.275 -2.8707,-3.7117 -0.8044,-1.4873 -1.5255,-3.0291 -2.1631,-4.6251 -0.6376,-1.5962 -1.2172,-3.1523 -1.7388,-4.6687 -0.4997,-1.567 -0.9343,-2.9707 -1.3036,-4.2113 l -7.5639,3.9679"
             id="path5178-3-2-65-3"
             style="font-size:60px;font-weight:bold;line-height:125%;writing-mode:lr-tb;fill:#000000;fill-opacity:1;stroke:#000000;stroke-width:5;stroke-linecap:round;stroke-linejoin:miter;stroke-opacity:1;stroke-dashoffset:0;font-family:The Girl Next Door;-inkscape-font-specification:The Girl Next Door Bold" />
        </g>
      </g>
      <g
         transform="translate(-5.1534678,-495.37006)"
         id="g6063">
        <path
           d="m 3620.4062,187.59375 c 0.46,0.43357 0.849,0.95134 1.125,1.53125 0.2761,0.57991 0.4393,1.22195 0.4688,1.90625 l 0.031,0.5 c 0.3703,-0.81032 0.9641,-1.51603 1.6876,-2.03125 0.7234,-0.51522 1.5766,-0.83996 2.5312,-0.90625 l 7.2188,-0.5 c -0.095,0.002 -0.1843,0.004 -0.2813,0 l -12.7813,-0.5 z"
           id="path6031"
           style="color:#000000;fill:url(#linearGradient6539);fill-opacity:1;fill-rule:evenodd;stroke:none;stroke-width:5;marker:none;visibility:visible;display:inline;overflow:visible;enable-background:accumulate" />
        <path
           d="m 3620.4062,187.59375 12.7813,0.5 c 0.097,0.004 0.186,0.002 0.2813,0 l -7.2188,0.5 c -0.9546,0.0663 -1.8078,0.39103 -2.5312,0.90625 -0.7235,0.51522 -1.3173,1.22093 -1.6876,2.03125 l -0.031,-0.5 c -0.03,-0.6843 -0.1927,-1.32634 -0.4688,-1.90625 -0.276,-0.57991 -0.665,-1.09768 -1.125,-1.53125 z"
           id="path6029"
           style="color:#000000;fill:url(#linearGradient6541);fill-opacity:1;fill-rule:evenodd;stroke:none;stroke-width:5;marker:none;visibility:visible;display:inline;overflow:visible;enable-background:accumulate" />
        <path
           d="m 3589.8125,184.53125 c -0.4219,0.51198 -0.9097,0.93812 -1.5,1.25 -0.5903,0.31188 -1.2831,0.50951 -2,0.5625 l -15.4063,1.125 c 0.4097,0.3478 0.7813,0.75534 1.0626,1.21875 0.2812,0.46341 0.4722,0.9827 0.5937,1.53125 0.4287,-0.65157 1.013,-1.19533 1.6875,-1.59375 0.6745,-0.39842 1.4391,-0.6515 2.2812,-0.6875 l 25.5938,-1.09375 -8.5625,-0.34375 c -0.7756,-0.0309 -1.4892,-0.22122 -2.125,-0.5625 -0.6358,-0.34128 -1.1937,-0.83348 -1.625,-1.40625 z"
           id="path6027"
           style="color:#000000;fill:url(#linearGradient6543);fill-opacity:1;fill-rule:evenodd;stroke:none;stroke-width:5;marker:none;visibility:visible;display:inline;overflow:visible;enable-background:accumulate" />
        <path
           d="m 3589.8125,184.53125 c 0.4313,0.57277 0.9892,1.06497 1.625,1.40625 0.6358,0.34128 1.3494,0.53162 2.125,0.5625 l 8.5625,0.34375 -25.5938,1.09375 c -0.8421,0.036 -1.6067,0.28908 -2.2812,0.6875 -0.6745,0.39842 -1.2588,0.94218 -1.6875,1.59375 -0.1215,-0.54855 -0.3125,-1.06784 -0.5937,-1.53125 -0.2813,-0.46341 -0.6529,-0.87095 -1.0626,-1.21875 l 15.4063,-1.125 c 0.7169,-0.053 1.4097,-0.25062 2,-0.5625 0.5903,-0.31188 1.0781,-0.73802 1.5,-1.25 z"
           id="path6025"
           style="color:#000000;fill:url(#linearGradient6545);fill-opacity:1;fill-rule:evenodd;stroke:none;stroke-width:5;marker:none;visibility:visible;display:inline;overflow:visible;enable-background:accumulate" />
        <path
           d="M 3653.9375,237.125 3669.875,236 c 0.6952,-0.0483 1.3526,-0.23553 1.9375,-0.53125 0.5849,-0.29572 1.107,-0.70149 1.5313,-1.1875 0.4242,-0.48601 0.7555,-1.03709 0.9687,-1.65625 0.2132,-0.61916 0.2983,-1.30483 0.25,-2 l -2.8125,-40.15625 c -0.048,-0.69517 -0.2072,-1.35555 -0.5,-1.9375 -0.2928,-0.58195 -0.7054,-1.07969 -1.1875,-1.5 -0.4821,-0.42031 -1.04,-0.75852 -1.6563,-0.96875 -0.6162,-0.21023 -1.3048,-0.29827 -2,-0.25 l -32.2187,2.21875 c 0.5699,-0.0926 1.136,-0.29327 1.625,-0.5625 0.489,-0.26923 0.9102,-0.61852 1.2813,-1.03125 0.371,-0.41273 0.6902,-0.88318 0.9062,-1.40625 0.216,-0.52307 0.3199,-1.08724 0.3438,-1.6875 l 1.5624,-39.625 c 0.027,-0.68601 -0.087,-1.33401 -0.3124,-1.9375 -0.2259,-0.60349 -0.5397,-1.1588 -0.9688,-1.625 -0.4291,-0.4662 -0.9488,-0.85086 -1.5312,-1.125 -0.5825,-0.27414 -1.2515,-0.44144 -1.9376,-0.46875 l -39.625,-1.59375 c -0.686,-0.0273 -1.334,0.0838 -1.9374,0.3125 -0.6035,0.22874 -1.1589,0.56702 -1.625,1 -0.4662,0.43298 -0.8509,0.9771 -1.125,1.5625 -0.2742,0.5854 -0.4415,1.22024 -0.4688,1.90625 l -0.8125,20.4375 -1.5937,-21.46875 c -0.048,-0.65301 -0.2028,-1.25598 -0.4688,-1.8125 -0.266,-0.55652 -0.6253,-1.05036 -1.0625,-1.46875 -0.4372,-0.41839 -0.9693,-0.76139 -1.5313,-1 -0.5619,-0.23861 -1.1722,-0.38907 -1.8124,-0.40625 -0.1708,-0.005 -0.3259,0.0185 -0.5,0.0312 l -40.25,2.96875 c -0.6966,0.0515 -1.3231,0.23243 -1.9063,0.53125 -0.5832,0.29882 -1.1105,0.72997 -1.5313,1.21875 -0.4207,0.48878 -0.7595,1.0349 -0.9687,1.65625 -0.2092,0.62135 -0.3015,1.30346 -0.25,2 l 2.9687,40.21875 c 0.075,1.0194 0.4556,1.93501 1.0313,2.6875 l -14.625,0.625 c -0.6987,0.0297 -1.3431,0.21766 -1.9375,0.5 -0.5944,0.28234 -1.1243,0.67818 -1.5625,1.15625 -0.4382,0.47807 -0.8011,1.0394 -1.0313,1.65625 -0.2301,0.61685 -0.3421,1.27005 -0.3124,1.96875 l 0.4062,9.5 c 18.0488,13.29153 41.9712,-5.94725 65.5312,-8.53125 18.0216,-1.97655 39.8612,22.23174 65.7813,42.90625 z"
           id="path6023"
           style="color:#000000;fill:url(#linearGradient6547);fill-opacity:1;fill-rule:evenodd;stroke:none;stroke-width:5;marker:none;visibility:visible;display:inline;overflow:visible;enable-background:accumulate" />
        <path
           d="m 3693.125,260.75 -0.031,-18.65625 c 0,-0.69897 -0.1184,-1.3655 -0.375,-1.96875 -0.2567,-0.60325 -0.6363,-1.13917 -1.0938,-1.59375 -0.4575,-0.45458 -1.0201,-0.80956 -1.625,-1.0625 -0.6049,-0.25294 -1.2698,-0.40789 -1.9688,-0.40625 L 3654,237.15625 c 12.1369,9.67618 25.1096,18.56261 39.125,23.59375 z"
           id="path6021"
           style="color:#000000;fill:url(#linearGradient6549);fill-opacity:1;fill-rule:evenodd;stroke:none;stroke-width:5;marker:none;visibility:visible;display:inline;overflow:visible;enable-background:accumulate" />
      </g>
    </g>
  </g>
</svg>
